<svg xmlns="http://www.w3.org/2000/svg" width="34.702" height="42.491" viewBox="0 0 34.702 42.491"><defs><style>.a{fill:#43a236;}</style></defs><g transform="translate(0 0)"><path class="a" d="M579.756,21.508l-3.311,7.285-6.365,11.3a.745.745,0,0,0-.053.584.715.715,0,0,0,.407.425l3.541,1.416a.7.7,0,0,0,.876-.31l6.374-11.331c.009-.018.044-.1.053-.124L582.536,27h.93a3.466,3.466,0,0,0,4.214-.009c.009,0,.018.009.026.009h.894l1.257,3.762c.009.027.044.106.053.124l6.374,11.331a.7.7,0,0,0,.876.31l3.541-1.416a.74.74,0,0,0,.407-.425.678.678,0,0,0-.053-.584l-6.356-11.3-3.293-7.25c-.009-.009-.018-.018-.018-.027L596.16,6.672a.691.691,0,0,0-.044-.531L593.283.475a.715.715,0,0,0-.682-.39.707.707,0,0,0-.62.478l-6.409,19.227L579.163.564a.694.694,0,0,0-.62-.478.707.707,0,0,0-.682.39L575.029,6.14a.737.737,0,0,0-.044.531Zm-5.825,19.466-2.213-.885L577.384,30l2.213.885Zm7.427-14.916-1.177,3.532-2.151-.859,3.019-6.63,1.523.221a3.488,3.488,0,0,0-.23,3.258h-.31A.693.693,0,0,0,581.359,26.058Zm2.089-1.9a2.125,2.125,0,1,1,2.125,2.125A2.119,2.119,0,0,1,583.448,24.155Zm13.765,16.819-5.665-10.092L593.761,30l5.674,10.092Zm-4.09-12.243-2.151.859-1.115-3.311.885-2.762Zm-.336-26.1,1.939,3.877-5.63,17.5a3.516,3.516,0,0,0-2.381-3.187Zm-14.429,0,6.064,18.183a3.952,3.952,0,0,0-.558.248l-2.895-.416-4.55-14.137Z" transform="translate(-569.992 -0.084)"/><path class="a" d="M882.708,20.249a2.131,2.131,0,0,1,2.125,2.125.708.708,0,1,0,1.416,0,2.131,2.131,0,0,1,2.125-2.125.708.708,0,1,0,0-1.416,2.131,2.131,0,0,1-2.125-2.125.708.708,0,1,0-1.416,0,2.131,2.131,0,0,1-2.125,2.125.708.708,0,0,0,0,1.416Zm2.833-1.416a3.832,3.832,0,0,0,.708.708.708.708,0,1,1-1.416,0A3.826,3.826,0,0,0,885.541,18.833Z" transform="translate(-854.38 -14.591)"/><path class="a" d="M570.708,156.249a2.131,2.131,0,0,1,2.125,2.125.708.708,0,0,0,1.416,0,2.131,2.131,0,0,1,2.125-2.125.708.708,0,1,0,0-1.416,2.131,2.131,0,0,1-2.125-2.125.708.708,0,1,0-1.416,0,2.131,2.131,0,0,1-2.125,2.125.708.708,0,1,0,0,1.416Zm2.833-1.416a3.831,3.831,0,0,0,.708.708,3.83,3.83,0,0,0-.708.708,3.83,3.83,0,0,0-.708-.708A3.831,3.831,0,0,0,573.541,154.833Z" transform="translate(-569.999 -138.552)"/></g></svg>